# xmcd
#
# Track frame offsets:
#	150
#	19347
#	40957
#	63075
#	84732
#	109852
#	132895
#	175075
#
# Disc length: 3611 seconds
#
# Revision: 1
# Processed by: cddbd v1.5.2PL0 Copyright (c) Steve Scherf et al.
# Submitted via: EZCDAudioConverter 2.1.7.1
#
DISCID=640e1908
DTITLE=V/A - Real World Notes V03
DYEAR=1900
DGENRE=
TTITLE0=Yungchen Lhamo - Om Mani Padme Hung [Edit]
TTITLE1=Joseph Arthur - Big City Secret
TTITLE2=Musicians Of The Nile - Al-Ward Al-Foll
TTITLE3=Paban Das Baul and Sam Mills - Nacho Kali
TTITLE4=Omar Pene and Super Diamono - Arale Sa Dome
TTITLE5=Tenores Di Bitti - Lamentu
TTITLE6=Afro Celt Sound System - Sure-As-Not [Full Whack Dub]
TTITLE7=Various Artist - Ecd Track08
EXTD=
EXTT0=
EXTT1=
EXTT2=
EXTT3=
EXTT4=
EXTT5=
EXTT6=
EXTT7=
PLAYORDER=
